<?xml version="1.0" standalone="no"?>
<!DOCTYPE svg PUBLIC "-//W3C//DTD SVG 20010904//EN"
 "http://www.w3.org/TR/2001/REC-SVG-20010904/DTD/svg10.dtd">
<svg version="1.0" xmlns="http://www.w3.org/2000/svg"
 width="20px" height="20px" viewBox="0 0 225.000000 225.000000"
 preserveAspectRatio="xMidYMid meet">

<g transform="translate(0.000000,225.000000) scale(0.100000,-0.100000)"
fill="#F6F8FA" stroke="none">
<path d="M995 1754 c-71 -168 -133 -307 -137 -310 -4 -3 -154 -17 -333 -32
-179 -15 -325 -30 -325 -33 0 -4 110 -101 244 -218 135 -116 247 -215 250
-219 2 -4 -29 -151 -70 -326 -41 -176 -73 -321 -70 -323 3 -3 373 216 555 328
13 8 75 -25 300 -161 156 -94 285 -169 287 -167 4 3 -126 577 -142 629 -4 12
62 75 246 234 137 119 250 220 250 223 0 4 -147 19 -327 34 -180 15 -331 31
-334 35 -4 4 -64 142 -134 307 -70 165 -128 301 -129 302 -1 1 -60 -135 -131
-303z m215 -274 c40 -96 73 -176 74 -177 1 -2 93 -10 204 -20 111 -9 202 -19
201 -22 0 -4 -67 -64 -150 -134 -83 -72 -149 -136 -149 -145 1 -10 20 -98 44
-197 24 -99 42 -182 40 -184 -2 -2 -79 42 -171 98 -93 55 -173 101 -178 101
-6 0 -85 -45 -175 -100 -91 -55 -168 -100 -171 -100 -3 0 13 82 37 183 24 100
44 190 44 199 0 9 -68 76 -152 150 -83 73 -145 134 -137 135 8 1 100 10 204
18 105 9 191 18 192 18 0 1 28 67 61 147 34 80 68 162 77 184 9 21 20 35 24
30 5 -5 41 -88 81 -184z"/>
</g>
</svg>
