<?xml version="1.0" standalone="no"?>
<!DOCTYPE svg PUBLIC "-//W3C//DTD SVG 20010904//EN"
 "http://www.w3.org/TR/2001/REC-SVG-20010904/DTD/svg10.dtd">
<svg version="1.0" xmlns="http://www.w3.org/2000/svg"
 width="20px" height="20px" viewBox="0 0 840.000000 859.000000"
 preserveAspectRatio="xMidYMid meet">

<g transform="translate(0.000000,859.000000) scale(0.100000,-0.100000)"
fill="#F6F8FA" stroke="none">
<path d="M1421 8554 c-30 -8 -81 -29 -115 -47 -79 -42 -201 -163 -243 -243
-68 -129 -63 159 -63 -3429 0 -3577 -5 -3296 61 -3428 64 -127 236 -266 369
-296 28 -7 256 -11 608 -11 l562 0 0 -537 0 -538 400 405 401 405 399 -404
400 -404 0 536 0 537 1370 0 c1363 0 1371 0 1433 21 178 60 335 226 382 404
13 53 15 423 15 3310 0 3587 5 3300 -62 3429 -42 80 -164 202 -244 244 -129
67 103 62 -2899 61 -2342 0 -2727 -2 -2774 -15z m5449 -2913 c0 -1316 -3
-2397 -6 -2402 -3 -5 -887 -9 -2135 -9 l-2129 0 0 2405 0 2405 2135 -2 2135
-3 0 -2394z m-2 -3368 c-3 -412 -4 -430 -24 -474 -26 -55 -79 -111 -137 -141
l-42 -23 -1232 -3 -1233 -2 0 269 0 269 -800 0 -800 1 0 -270 0 -270 -432 3
c-496 3 -472 -1 -562 98 -75 84 -76 92 -76 562 l0 408 2670 0 2671 0 -3 -427z"/>
<path d="M3130 7235 l0 -265 270 0 270 0 0 265 0 265 -270 0 -270 0 0 -265z"/>
<path d="M3137 6433 c-4 -3 -7 -125 -7 -270 l0 -263 270 0 270 0 -2 268 -3
267 -261 3 c-143 1 -263 -1 -267 -5z"/>
<path d="M3132 5103 l3 -268 265 0 265 0 3 268 2 267 -270 0 -270 0 2 -267z"/>
<path d="M3130 4035 l0 -265 270 0 270 0 0 265 0 265 -270 0 -270 0 0 -265z"/>
</g>
</svg>
