<?xml version="1.0" standalone="no"?>
<!DOCTYPE svg PUBLIC "-//W3C//DTD SVG 20010904//EN"
 "http://www.w3.org/TR/2001/REC-SVG-20010904/DTD/svg10.dtd">
<svg version="1.0" xmlns="http://www.w3.org/2000/svg"
 width="150px" height="150px" viewBox="0 0 200.000000 200.000000"
 preserveAspectRatio="xMidYMid meet">

<g transform="translate(0.000000,200.000000) scale(0.100000,-0.100000)"
fill="#0969DA" stroke="none">
<path d="M750 1723 c-59 -10 -153 -47 -207 -82 -166 -108 -259 -266 -270 -461
-10 -178 42 -314 167 -441 163 -165 386 -218 607 -144 l77 26 165 -165 c91
-91 179 -170 194 -176 91 -34 203 15 236 103 14 36 14 98 1 134 -6 15 -85 103
-176 194 l-165 165 26 77 c74 221 21 444 -144 607 -84 83 -165 129 -272 155
-59 14 -180 18 -239 8z m195 -148 c97 -16 221 -101 279 -193 76 -121 88 -288
29 -415 -44 -92 -118 -169 -209 -214 -64 -31 -85 -36 -166 -40 -77 -4 -104 -2
-156 16 -121 41 -211 120 -263 227 -125 263 42 581 327 623 58 8 82 8 159 -4z
m645 -1122 c0 -15 -28 -43 -42 -43 -7 0 -78 66 -160 147 l-148 147 27 28 28
29 147 -149 c82 -81 148 -153 148 -159z"/>
<path d="M780 1255 l0 -185 75 0 75 0 0 185 0 185 -75 0 -75 0 0 -185z"/>
<path d="M780 925 l0 -76 73 3 72 3 3 73 3 72 -76 0 -75 0 0 -75z"/>
</g>
</svg>
