<?xml version="1.0" standalone="no"?>
<!DOCTYPE svg PUBLIC "-//W3C//DTD SVG 20010904//EN"
 "http://www.w3.org/TR/2001/REC-SVG-20010904/DTD/svg10.dtd">
<svg version="1.0" xmlns="http://www.w3.org/2000/svg"
 width="20px" height="20px" viewBox="0 0 452.000000 452.000000"
 preserveAspectRatio="xMidYMid meet">

<g transform="translate(0.000000,452.000000) scale(0.100000,-0.100000)"
fill="#82868A" stroke="none">
<path d="M1570 4480 c-585 -61 -1094 -413 -1355 -935 -70 -142 -112 -258 -144
-406 -96 -445 -5 -925 248 -1301 257 -381 627 -630 1084 -730 89 -19 132 -22
332 -22 200 0 243 3 332 22 225 49 446 143 627 266 l99 67 74 -74 74 -74 -17
-52 c-24 -74 -15 -166 22 -237 22 -40 139 -165 451 -482 483 -490 489 -496
623 -497 121 0 154 17 302 163 153 150 173 186 172 307 0 139 -2 142 -496 628
-313 308 -442 429 -481 450 -74 39 -154 45 -232 19 l-60 -21 -72 72 c-40 39
-73 75 -73 79 0 4 27 44 60 90 119 166 221 406 272 638 20 92 22 133 22 335 0
200 -3 243 -22 332 -116 531 -458 973 -927 1198 -274 132 -626 195 -915 165z
m460 -338 c360 -84 663 -289 860 -584 106 -157 172 -314 211 -498 32 -148 32
-411 1 -552 -51 -234 -143 -426 -292 -611 -191 -237 -476 -408 -798 -479 -141
-31 -404 -31 -552 1 -184 39 -341 105 -498 211 -295 197 -501 501 -583 860
-28 121 -36 364 -15 495 31 203 112 410 226 581 68 102 262 296 364 364 165
110 374 193 566 225 121 20 396 13 510 -13z"/>
<path d="M812 3130 c-71 -147 -87 -220 -87 -405 0 -136 3 -172 23 -244 109
-400 448 -678 862 -708 167 -11 374 37 525 122 l70 40 -145 6 c-173 8 -292 33
-432 89 -443 177 -735 584 -767 1065 l-7 120 -42 -85z"/>
</g>
</svg>
